# xmcd
#
# Track frame offsets:
#	150
#	21445
#	37502
#	51910
#	70470
#	87622
#	101980
#	117670
#	138652
#	165790
#	189117
#	206632
#	226266
#	245099
#	264861
#
# Disc length: 3840 seconds
#
# Revision: 0
# Processed by: cddbd v1.5.2PL0 Copyright (c) Steve Scherf et al.
# Submitted via: EZCDAudioConverter 8.0.2.1
#
DISCID=d10efe0f
DTITLE=李玟 - 1994-2008年新歌＋精选 豪华典藏限量盘 Disc2
DYEAR=2008
DGENRE=Pop/Rock
TTITLE0=我和爱人和我
TTITLE1=冥想爱
TTITLE2=刀马旦
TTITLE3=爱在85°C
TTITLE4=答案
TTITLE5=要定你
TTITLE6=No Doubt
TTITLE7=完整
TTITLE8=暗示
TTITLE9=当爱成碎片
TTITLE10=Do You Want My Love
TTITLE11=爱你爱到
TTITLE12=被爱的女人
TTITLE13=每一次想你
TTITLE14=爱我久一点
EXTD=
EXTT0=
EXTT1=
EXTT2=
EXTT3=
EXTT4=
EXTT5=
EXTT6=
EXTT7=
EXTT8=
EXTT9=
EXTT10=
EXTT11=
EXTT12=
EXTT13=
EXTT14=
PLAYORDER=
